<svg width="1920" height="1081" viewBox="0 0 1920 1081" fill="none" xmlns="http://www.w3.org/2000/svg">
<mask id="mask0_939_780" style="mask-type:alpha" maskUnits="userSpaceOnUse" x="0" y="0" width="1920" height="1081">
<rect x="0.619629" y="0.527344" width="1918.76" height="1080" fill="#D9D9D9"/>
</mask>
<g mask="url(#mask0_939_780)">
<g opacity="0.4">
<path d="M331.228 268.921L161.41 526.319V268.921H331.228Z" stroke="#A07859" stroke-opacity="0.75" stroke-width="0.8" stroke-miterlimit="10"/>
<path d="M394.557 268.921V1071.37H161.41V621.746L394.092 268.921H394.557Z" stroke="#A07859" stroke-opacity="0.75" stroke-width="0.8" stroke-miterlimit="10"/>
<path d="M1760.87 905.481V268.945H1527.77V1071.64H1760.87H2250.87L2278.93 905.481H1760.87Z" stroke="#A07859" stroke-opacity="0.75" stroke-width="0.8" stroke-miterlimit="10"/>
<path d="M1415.13 499.148C1363.74 359.694 1228.13 268.921 1079.32 268.921H638.072L489.208 502.014H1019.79C1112.63 502.014 1191.08 575.539 1191.74 668.174V672.241C1190.91 765.047 1112.6 838.572 1019.79 838.572H722.209V603.445H489.208V1071.67H1079.32C1226.93 1071.67 1361.53 982.24 1413.93 844.672C1414.62 842.639 1415.45 840.605 1416.14 838.596C1435.08 786.019 1445.4 729.4 1445.4 670.232C1445.4 611.064 1435.08 554.616 1416.14 502.039C1415.79 501.034 1415.45 500.177 1415.13 499.172V499.148Z" stroke="#A07859" stroke-opacity="0.75" stroke-width="0.8" stroke-miterlimit="10"/>
<path d="M1933.61 226.487C1985 87.0325 2120.6 -3.74023 2269.42 -3.74023H2710.67L2859.53 229.353H2328.95C2236.11 229.353 2157.66 302.878 2157 395.513V399.58C2157.83 492.386 2236.14 565.911 2328.95 565.911H2626.53V330.784H2859.53V799.004H2269.42C2121.8 799.004 1987.21 709.579 1934.81 572.011C1934.12 569.978 1933.29 567.944 1932.6 565.935C1913.66 513.358 1903.34 456.738 1903.34 397.571C1903.34 338.575 1913.66 281.955 1932.6 229.378C1932.94 228.373 1933.29 227.516 1933.61 226.511V226.487Z" stroke="#A07859" stroke-opacity="0.75" stroke-width="0.8" stroke-miterlimit="10"/>
<path d="M1608.77 162.15L1778.59 -95.248V162.15H1608.77Z" stroke="#A07859" stroke-opacity="0.75" stroke-width="0.8" stroke-miterlimit="10"/>
<path d="M1545.44 162.15V-640.301H1778.59V-190.676L1545.91 162.15H1545.44Z" stroke="#A07859" stroke-opacity="0.75" stroke-width="0.8" stroke-miterlimit="10"/>
<path d="M179.129 -474.411V162.15H412.228V-640.57H179.129H-310.865L-338.927 -474.411H179.129Z" stroke="#A07859" stroke-opacity="0.75" stroke-width="0.8" stroke-miterlimit="10"/>
<path d="M524.868 -68.0774C576.262 71.3769 711.866 162.15 860.681 162.15H1301.93L1450.79 -70.9439H920.211C827.374 -70.9439 748.923 -144.469 748.261 -237.103V-241.17C749.094 -333.977 827.398 -407.501 920.211 -407.501H1217.79V-172.374H1450.79V-640.57H860.681C713.067 -640.57 578.467 -551.145 526.069 -413.577C525.382 -411.544 524.549 -409.51 523.863 -407.501C504.918 -354.924 494.6 -298.304 494.6 -239.137C494.6 -179.969 504.918 -123.521 523.863 -70.9439C524.206 -69.9394 524.549 -69.0819 524.868 -68.0774Z" stroke="#A07859" stroke-opacity="0.75" stroke-width="0.8" stroke-miterlimit="10"/>
<path d="M6.39442 204.584C-44.9995 344.038 -180.604 434.811 -329.418 434.811H-770.666L-919.529 201.717H-388.949C-296.112 201.717 -217.66 128.193 -216.999 35.5578V31.4908C-217.832 -61.3155 -296.136 -134.84 -388.949 -134.84H-686.529V100.287H-919.529V-367.909H-329.418C-181.805 -367.909 -47.2052 -278.484 5.19354 -140.916C5.87977 -138.883 6.71304 -136.849 7.39927 -134.84C26.3442 -82.263 36.6622 -25.6433 36.6622 33.5243C36.6622 92.5205 26.3442 149.14 7.39927 201.717C7.05615 202.722 6.71303 203.579 6.39442 204.584Z" stroke="#A07859" stroke-opacity="0.75" stroke-width="0.8" stroke-miterlimit="10"/>
</g>
</g>
</svg>
